<?xml version="1.0" encoding="UTF-8" standalone="no" ?>
<!DOCTYPE svg PUBLIC "-//W3C//DTD SVG 1.1//EN" "http://www.w3.org/Graphics/SVG/1.1/DTD/svg11.dtd">
<svg xmlns="http://www.w3.org/2000/svg" xmlns:xlink="http://www.w3.org/1999/xlink" version="1.1" width="1080" height="1080" viewBox="0 0 1080 1080" xml:space="preserve">
<desc>Created with Fabric.js 5.2.4</desc>
<defs>
</defs>
<g transform="matrix(1 0 0 1 540 540)" id="2e7ef3bb-3b99-4ef9-8fb3-f001a96dd16f"  >
<rect style="stroke: none; stroke-width: 1; stroke-dasharray: none; stroke-linecap: butt; stroke-dashoffset: 0; stroke-linejoin: miter; stroke-miterlimit: 4; fill: rgb(255,255,255); fill-rule: nonzero; opacity: 1; visibility: hidden;" vector-effect="non-scaling-stroke"  x="-540" y="-540" rx="0" ry="0" width="1080" height="1080" />
</g>
<g transform="matrix(1 0 0 1 540 540)" id="adab5519-8d46-48f4-9cb8-1ca2e5f00f97"  >
</g>
<g transform="matrix(1 0 0 1 540 540)"  >
<g style="" vector-effect="non-scaling-stroke"   >
		<g transform="matrix(1 0 0 1 0 0)"  >
<rect style="stroke: none; stroke-width: 1; stroke-dasharray: none; stroke-linecap: butt; stroke-dashoffset: 0; stroke-linejoin: miter; stroke-miterlimit: 4; fill: rgb(146,146,150); fill-rule: nonzero; opacity: 1; visibility: hidden;" vector-effect="non-scaling-stroke"  x="-540" y="-540" rx="0" ry="0" width="1080" height="1080" />
</g>
		<g transform="matrix(67.5 0 0 67.5 -0.23 0.1)"  >
<path style="stroke: none; stroke-width: 1; stroke-dasharray: none; stroke-linecap: butt; stroke-dashoffset: 0; stroke-linejoin: miter; stroke-miterlimit: 4; fill: rgb(146,146,150); fill-rule: nonzero; opacity: 1;" vector-effect="non-scaling-stroke"  transform=" translate(-7.94, -7.5)" d="M 2 5.5 C 1.9998035131090377 3.9025446622701354 3.0812561547442616 2.5076567452179686 4.628383567315405 2.109837233479726 C 6.175510979886548 1.7120177217414834 7.7956844226946265 2.412224928543414 8.56608466427565 3.811634469178547 C 9.336484905856672 5.21104400981368 9.061600397369642 6.954514865386491 7.8980000000000015 8.048999999999998 C 9.515134156310896 8.83372670550189 10.647634679409801 10.358160501261917 10.931999999999999 12.133 C 10.996893458105117 12.542242999624616 10.717742999624617 12.92660654189488 10.308499999999999 12.991499999999998 C 9.899257000375382 13.056393458105116 9.514893458105117 12.777242999624617 9.45 12.367999999999999 C 9.140159836206447 10.426818057596389 7.465753865725174 8.998476010645923 5.499999999999999 8.998476010645923 C 3.5342461342748246 8.998476010645923 1.8598401637935513 10.426818057596389 1.549999999999999 12.367999999999999 C 1.4848303995199652 12.777242999624617 1.1002429996246166 13.056169600480032 0.6909999999999986 12.990999999999998 C 0.28175700037538065 12.925830399519965 0.002830399519964999 12.541242999624616 0.06799999999999873 12.131999999999998 C 0.35281058880253163 10.35783739583798 1.4852745038621589 8.834199392781489 3.1020000000000003 8.05 C 2.3979319847217355 7.388901107110007 1.9990059151311736 6.465796318130032 1.9999999999999996 5.500000000000001 Z M 11 4 C 12.187053761923456 4.000828937671498 13.262062764166622 4.701285149879704 13.742323734203987 5.78684800918038 C 14.222584704241353 6.872410868481056 14.01783035326844 8.13904377342336 13.22 9.018 C 14.450089779274853 9.628690367292299 15.375559121874634 10.717562890694856 15.780000000000001 12.029999999999998 C 15.860692175917759 12.28663344563499 15.797555628205961 12.56682939823971 15.614595606118378 12.764054100015477 C 15.431635584030795 12.961278801791245 15.156958586324144 13.04523439984099 14.895000000000001 12.984000000000002 C 14.633315329633229 12.92304889830231 14.424032721758294 12.727108533188074 14.346000000000002 12.470000000000002 C 13.981415617339568 11.290555667865878 13.023558335044477 10.38966848562799 11.824000000000002 10.098000000000003 C 11.486912887002246 10.01662484478864 11.249564025667315 9.714770021139685 11.250000000000002 9.368000000000002 L 11.250000000000002 9.016000000000002 C 11.249819127313481 8.731181571577215 11.410983509361353 8.470839108269113 11.666000000000002 8.344000000000001 C 12.290189781822201 8.034654019227332 12.619247662512768 7.336277071101234 12.460407545259216 6.657986840667146 C 12.301567428005663 5.979696610233058 11.696640379344885 5.500037651891769 11 5.5 C 10.585786437626904 5.5 10.25 5.164213562373095 10.25 4.75 C 10.25 4.335786437626905 10.585786437626904 4 11 4 Z M 5.5 3.5 C 4.7749923192919175 3.4836049201559467 4.097911715313112 3.8609523041161404 3.730488050899992 4.486176093297295 C 3.363064386486872 5.111399882478449 3.362870555103614 5.886531584123596 3.7299814835182508 6.51193905287285 C 4.097092411932888 7.137346521622104 4.773984210373892 7.51503248332734 5.498999999999997 7.4990000000000006 C 6.585879904402285 7.47496551110268 7.454512315477924 6.587134522005105 7.454784169836195 5.499988943278279 C 7.455056024194467 4.4128433645514535 6.586867748225591 3.5245780617036795 5.5 3.5 Z" stroke-linecap="round" />
</g>
</g>
</g>
<g transform="matrix(NaN NaN NaN NaN 0 0)"  >
<g style=""   >
</g>
</g>
</svg>