<?xml version="1.0" encoding="UTF-8" standalone="no" ?>
<!DOCTYPE svg PUBLIC "-//W3C//DTD SVG 1.1//EN" "http://www.w3.org/Graphics/SVG/1.1/DTD/svg11.dtd">
<svg xmlns="http://www.w3.org/2000/svg" xmlns:xlink="http://www.w3.org/1999/xlink" version="1.1" width="1080" height="1080" viewBox="0 0 1080 1080" xml:space="preserve">
<desc>Created with Fabric.js 5.2.4</desc>
<defs>
</defs>
<g transform="matrix(1 0 0 1 540 540)" id="627b9ee3-0f62-4bef-8ef8-3171dd82e8d7"  >
<rect style="stroke: none; stroke-width: 1; stroke-dasharray: none; stroke-linecap: butt; stroke-dashoffset: 0; stroke-linejoin: miter; stroke-miterlimit: 4; fill: rgb(255,255,255); fill-rule: nonzero; opacity: 1; visibility: hidden;" vector-effect="non-scaling-stroke"  x="-540" y="-540" rx="0" ry="0" width="1080" height="1080" />
</g>
<g transform="matrix(1 0 0 1 540 540)" id="709969e4-8213-4091-932f-94e89b27cddd"  >
</g>
<g transform="matrix(1 0 0 1 540 540)"  >
<g style="" vector-effect="non-scaling-stroke"   >
		<g transform="matrix(1 0 0 1 0 0)"  >
<rect style="stroke: none; stroke-width: 1; stroke-dasharray: none; stroke-linecap: butt; stroke-dashoffset: 0; stroke-linejoin: miter; stroke-miterlimit: 4; fill: rgb(146,146,150); fill-rule: nonzero; opacity: 1; visibility: hidden;" vector-effect="non-scaling-stroke"  x="-540" y="-540" rx="0" ry="0" width="1080" height="1080" />
</g>
		<g transform="matrix(67.5 0 0 67.5 0 0.07)"  >
<path style="stroke: none; stroke-width: 1; stroke-dasharray: none; stroke-linecap: butt; stroke-dashoffset: 0; stroke-linejoin: miter; stroke-miterlimit: 4; fill: rgb(146,146,150); fill-rule: nonzero; opacity: 1;" vector-effect="non-scaling-stroke"  transform=" translate(-8, -8)" d="M 5 5.372 L 5 6.25 C 5 6.664 5.336 7 5.75 7 L 10.25 7 C 10.664213562373096 7 11 6.664213562373095 11 6.25 L 11 5.372 C 9.966839986015293 5.006722774030313 9.347095935694854 3.950250327677227 9.53240324077965 2.87020020430739 C 9.717710545864445 1.7901500809375532 10.65416832209094 1.000679656440357 11.75 1.000679656440357 C 12.84583167790906 1.000679656440357 13.782289454135555 1.7901500809375541 13.96759675922035 2.8702002043073915 C 14.152904064305144 3.950250327677229 13.533160013984705 5.0067227740303135 12.499999999999998 5.372 L 12.5 6.25 C 12.5 7.492640687119286 11.492640687119286 8.5 10.25 8.5 L 8.75 8.5 L 8.75 10.628 C 9.783739550040508 10.993299478239136 10.403928340873707 12.050244774630807 10.218612243398095 13.130855301201848 C 10.033296145922483 14.21146582777289 9.096385500688392 15.001380974283364 8 15.001380974283364 C 6.903614499311609 15.001380974283364 5.966703854077517 14.21146582777289 5.781387756601905 13.130855301201848 C 5.596071659126294 12.050244774630805 6.216260449959494 10.993299478239134 7.250000000000002 10.628 L 7.25 8.5 L 5.75 8.5 C 4.507359312880714 8.5 3.5 7.492640687119286 3.5 6.25 L 3.5 5.372 C 2.466839986015293 5.006722774030313 1.847095935694855 3.950250327677227 2.0324032407796504 2.87020020430739 C 2.2177105458644455 1.7901500809375532 3.1541683220909382 1.000679656440357 4.25 1.000679656440357 C 5.345831677909062 1.000679656440357 6.282289454135555 1.7901500809375541 6.46759675922035 2.8702002043073915 C 6.652904064305145 3.950250327677229 6.0331600139847055 5.0067227740303135 4.999999999999998 5.372 Z M 5 3.25 C 5 2.835786437626905 4.664213562373095 2.5 4.25 2.5 C 3.835786437626905 2.5 3.5 2.8357864376269046 3.5 3.25 C 3.5 3.664213562373095 3.835786437626905 4 4.25 4 C 4.664213562373095 4 5 3.664213562373095 5 3.25 Z M 11.75 4 C 12.164213562373096 4 12.5 3.664213562373095 12.5 3.25 C 12.5 2.835786437626905 12.164213562373096 2.5 11.75 2.5 C 11.335786437626904 2.5 11 2.835786437626905 11 3.25 C 11 3.664213562373095 11.335786437626904 4 11.75 4 Z M 8.75 12.75 C 8.75 12.335786437626904 8.414213562373096 12 8 12 C 7.585786437626905 12 7.25 12.335786437626904 7.25 12.75 C 7.25 13.164213562373096 7.585786437626905 13.5 8 13.5 C 8.414213562373096 13.5 8.75 13.164213562373096 8.75 12.75 Z" stroke-linecap="round" />
</g>
</g>
</g>
<g transform="matrix(NaN NaN NaN NaN 0 0)"  >
<g style=""   >
</g>
</g>
</svg>