<?xml version="1.0" encoding="UTF-8" standalone="no" ?>
<!DOCTYPE svg PUBLIC "-//W3C//DTD SVG 1.1//EN" "http://www.w3.org/Graphics/SVG/1.1/DTD/svg11.dtd">
<svg xmlns="http://www.w3.org/2000/svg" xmlns:xlink="http://www.w3.org/1999/xlink" version="1.1" width="1080" height="1080" viewBox="0 0 1080 1080" xml:space="preserve">
<desc>Created with Fabric.js 5.2.4</desc>
<defs>
</defs>
<g transform="matrix(1 0 0 1 540 540)" id="6d38b101-225c-4232-81ce-559c2ec5a284"  >
</g>
<g transform="matrix(1 0 0 1 540 540)" id="36c7c363-1c8e-4d0f-867c-f726a2c7c3ea"  >
<rect style="stroke: none; stroke-width: 1; stroke-dasharray: none; stroke-linecap: butt; stroke-dashoffset: 0; stroke-linejoin: miter; stroke-miterlimit: 4; fill: rgb(255,255,255); fill-rule: nonzero; opacity: 1; visibility: hidden;" vector-effect="non-scaling-stroke"  x="-540" y="-540" rx="0" ry="0" width="1080" height="1080" />
</g>
<g transform="matrix(67.5 0 0 67.5 540 540)"  >
<path style="stroke: none; stroke-width: 1; stroke-dasharray: none; stroke-linecap: butt; stroke-dashoffset: 0; stroke-linejoin: miter; stroke-miterlimit: 4; fill: rgb(134,145,189); fill-rule: nonzero; opacity: 1;"  transform=" translate(-8, -7.8)" d="M 8 0 C 12.42 0 16 3.58 16 8 C 15.999121314045178 11.437004146991882 13.806446179799526 14.490656306427569 10.549999999999999 15.59 C 10.15 15.67 10 15.42 10 15.209999999999999 C 10 14.94 10.01 14.079999999999998 10.01 13.009999999999998 C 10.01 12.259999999999998 9.76 11.779999999999998 9.469999999999999 11.529999999999998 C 11.249999999999998 11.329999999999998 13.12 10.649999999999997 13.12 7.579999999999997 C 13.12 6.6999999999999975 12.809999999999999 5.9899999999999975 12.299999999999999 5.429999999999998 C 12.379999999999999 5.229999999999998 12.659999999999998 4.409999999999998 12.219999999999999 3.309999999999998 C 12.219999999999999 3.309999999999998 11.549999999999999 3.0899999999999976 10.02 4.129999999999998 C 9.379999999999999 3.949999999999998 8.7 3.859999999999998 8.02 3.859999999999998 C 7.34 3.859999999999998 6.659999999999999 3.949999999999998 6.02 4.129999999999998 C 4.489999999999999 3.099999999999998 3.8199999999999994 3.3099999999999983 3.8199999999999994 3.3099999999999983 C 3.3799999999999994 4.409999999999998 3.6599999999999993 5.229999999999999 3.7399999999999993 5.429999999999998 C 3.2299999999999995 5.989999999999998 2.9199999999999995 6.709999999999998 2.9199999999999995 7.579999999999998 C 2.9199999999999995 10.639999999999999 4.779999999999999 11.329999999999998 6.56 11.529999999999998 C 6.329999999999999 11.729999999999997 6.119999999999999 12.079999999999998 6.05 12.599999999999998 C 5.59 12.809999999999999 4.4399999999999995 13.149999999999999 3.7199999999999998 11.939999999999998 C 3.57 11.699999999999998 3.1199999999999997 11.109999999999998 2.4899999999999998 11.119999999999997 C 1.8199999999999998 11.129999999999997 2.2199999999999998 11.499999999999998 2.4999999999999996 11.649999999999997 C 2.8399999999999994 11.839999999999996 3.2299999999999995 12.549999999999997 3.3199999999999994 12.779999999999998 C 3.4799999999999995 13.229999999999997 3.9999999999999996 14.089999999999998 6.01 13.719999999999997 C 6.01 14.389999999999997 6.02 15.019999999999998 6.02 15.209999999999997 C 6.02 15.419999999999998 5.869999999999999 15.659999999999997 5.47 15.589999999999998 C 2.2021803858558546 14.502278497114801 -0.0018080329634804215 11.444093469904793 -8.881784197001252e-16 8.000000000000004 C 0 3.58 3.58 0 8 0 Z" stroke-linecap="round" />
</g>
<g transform="matrix(0 0 0 0 0 0)"  >
<g style=""   >
</g>
</g>
</svg>