<?xml version="1.0" encoding="UTF-8" standalone="no" ?>
<!DOCTYPE svg PUBLIC "-//W3C//DTD SVG 1.1//EN" "http://www.w3.org/Graphics/SVG/1.1/DTD/svg11.dtd">
<svg xmlns="http://www.w3.org/2000/svg" xmlns:xlink="http://www.w3.org/1999/xlink" version="1.1" width="1080" height="1080" viewBox="0 0 1080 1080" xml:space="preserve">
<desc>Created with Fabric.js 5.2.4</desc>
<defs>
</defs>
<g transform="matrix(1 0 0 1 540 540)" id="88198403-c33c-4d48-a3d2-3979b66fa67f"  >
<rect style="stroke: none; stroke-width: 1; stroke-dasharray: none; stroke-linecap: butt; stroke-dashoffset: 0; stroke-linejoin: miter; stroke-miterlimit: 4; fill: rgb(255,255,255); fill-rule: nonzero; opacity: 1; visibility: hidden;" vector-effect="non-scaling-stroke"  x="-540" y="-540" rx="0" ry="0" width="1080" height="1080" />
</g>
<g transform="matrix(1 0 0 1 540 540)" id="2725a467-70d8-4272-8f8f-8d8488e4eb75"  >
</g>
<g transform="matrix(1 0 0 1 540 540)"  >
<g style="" vector-effect="non-scaling-stroke"   >
		<g transform="matrix(1 0 0 1 0 0)"  >
<rect style="stroke: none; stroke-width: 1; stroke-dasharray: none; stroke-linecap: butt; stroke-dashoffset: 0; stroke-linejoin: miter; stroke-miterlimit: 4; fill: rgb(146,146,150); fill-rule: nonzero; opacity: 1; visibility: hidden;" vector-effect="non-scaling-stroke"  x="-540" y="-540" rx="0" ry="0" width="1080" height="1080" />
</g>
		<g transform="matrix(67.5 0 0 67.5 0 0)"  >
<path style="stroke: none; stroke-width: 1; stroke-dasharray: none; stroke-linecap: butt; stroke-dashoffset: 0; stroke-linejoin: miter; stroke-miterlimit: 4; fill: rgb(146,146,150); fill-rule: nonzero; opacity: 1;" vector-effect="non-scaling-stroke"  transform=" translate(-8, -8)" d="M 8 9.5 C 8.82842712474619 9.5 9.5 8.82842712474619 9.5 8 C 9.5 7.17157287525381 8.82842712474619 6.5 8 6.5 C 7.17157287525381 6.5 6.5 7.17157287525381 6.5 8 C 6.5 8.82842712474619 7.17157287525381 9.5 8 9.5 Z" stroke-linecap="round" />
</g>
		<g transform="matrix(67.5 0 0 67.5 0 0)"  >
<path style="stroke: none; stroke-width: 1; stroke-dasharray: none; stroke-linecap: butt; stroke-dashoffset: 0; stroke-linejoin: miter; stroke-miterlimit: 4; fill: rgb(146,146,150); fill-rule: nonzero; opacity: 1;" vector-effect="non-scaling-stroke"  transform=" translate(-8, -8)" d="M 8 0 C 12.418277998646348 0 16 3.5817220013536506 16 7.999999999999998 C 16 12.418277998646346 12.41827799864635 15.999999999999998 8.000000000000002 16 C 3.5817220013536524 16 0 12.418277998646348 0 8 C 0 3.5817220013536524 3.5817220013536524 0 8 0 Z M 1.5 8 C 1.5 11.589850873900158 4.410149126099842 14.5 8 14.5 C 11.589850873900158 14.5 14.5 11.589850873900158 14.5 8 C 14.5 4.410149126099842 11.589850873900158 1.5 8 1.5 C 4.410149126099842 1.5 1.5 4.410149126099842 1.5 7.999999999999999 Z" stroke-linecap="round" />
</g>
</g>
</g>
<g transform="matrix(NaN NaN NaN NaN 0 0)"  >
<g style=""   >
</g>
</g>
</svg>