<?xml version="1.0" encoding="UTF-8" standalone="no" ?>
<!DOCTYPE svg PUBLIC "-//W3C//DTD SVG 1.1//EN" "http://www.w3.org/Graphics/SVG/1.1/DTD/svg11.dtd">
<svg xmlns="http://www.w3.org/2000/svg" xmlns:xlink="http://www.w3.org/1999/xlink" version="1.1" width="1080" height="1080" viewBox="0 0 1080 1080" xml:space="preserve">
<desc>Created with Fabric.js 5.2.4</desc>
<defs>
</defs>
<g transform="matrix(1 0 0 1 540 540)" id="0d36e906-f745-409e-ac5f-0b916d5bc237"  >
<rect style="stroke: none; stroke-width: 1; stroke-dasharray: none; stroke-linecap: butt; stroke-dashoffset: 0; stroke-linejoin: miter; stroke-miterlimit: 4; fill: rgb(255,255,255); fill-rule: nonzero; opacity: 1; visibility: hidden;" vector-effect="non-scaling-stroke"  x="-540" y="-540" rx="0" ry="0" width="1080" height="1080" />
</g>
<g transform="matrix(1 0 0 1 540 540)" id="f9773085-3d2b-4876-af32-6291e7a753be"  >
</g>
<g transform="matrix(1 0 0 1 540 540)"  >
<g style="" vector-effect="non-scaling-stroke"   >
		<g transform="matrix(1 0 0 1 0 0)"  >
<rect style="stroke: none; stroke-width: 1; stroke-dasharray: none; stroke-linecap: butt; stroke-dashoffset: 0; stroke-linejoin: miter; stroke-miterlimit: 4; fill: rgb(146,146,150); fill-rule: nonzero; opacity: 1; visibility: hidden;" vector-effect="non-scaling-stroke"  x="-540" y="-540" rx="0" ry="0" width="1080" height="1080" />
</g>
		<g transform="matrix(67.5 0 0 67.5 -0.06 0.1)"  >
<path style="stroke: none; stroke-width: 1; stroke-dasharray: none; stroke-linecap: butt; stroke-dashoffset: 0; stroke-linejoin: miter; stroke-miterlimit: 4; fill: rgb(146,146,150); fill-rule: nonzero; opacity: 1;" vector-effect="non-scaling-stroke"  transform=" translate(-8, -7.33)" d="M 8 0.25 C 8.285626209696245 0.24981520412474045 8.546562831158557 0.41188282339850896 8.673 0.6679999999999999 L 10.555 4.483 L 14.765 5.095 C 15.047456613304812 5.1360220102865135 15.282146724903788 5.333810962457388 15.370428432732439 5.605234770901724 C 15.45871014056109 5.876658579346059 15.385279529089226 6.174665061460225 15.181000000000001 6.373999999999999 L 12.135000000000002 9.344 L 12.854000000000001 13.536 C 12.901554139930502 13.817158871586619 12.785774458207527 14.10099515405131 12.555134185900789 14.268675719671373 C 12.32449391359405 14.436356285291438 12.018785797877669 14.458950929090104 11.766000000000002 14.327 L 8 12.347 L 4.234 14.327 C 3.981436526063988 14.459609719362245 3.6755105918472633 14.437461783302815 3.4446816253987844 14.269856191855851 C 3.213852658950305 14.102250600408885 3.0980889085756136 13.818208416222708 3.146 13.536999999999999 L 3.8659999999999997 9.343 L 0.818 6.374 C 0.6131111433609752 6.174734883862501 0.539285278991053 5.876340788017252 0.6276244523203258 5.604527947004105 C 0.7159636256495986 5.3327151059909585 0.9511104156961883 5.134737122831076 1.234 5.093999999999999 L 5.444 4.483 L 7.327 0.668 C 7.453437168841443 0.4118828233985091 7.714373790303754 0.2498152041247405 8 0.24999999999999994 Z M 8 2.695 L 6.615 5.5 C 6.505820049579572 5.721063422858022 6.294963273343756 5.874345831114556 6.051 5.91 L 2.954 6.36 L 5.194000000000001 8.544 C 5.370922824230098 8.716276441100424 5.4517040677665145 8.964603967527186 5.410000000000001 9.208 L 4.8820000000000014 12.292 L 7.651000000000002 10.836 C 7.869489895087499 10.721135520069604 8.130510104912505 10.721135520069604 8.349000000000002 10.836 L 11.119000000000002 12.292 L 10.589000000000002 9.208 C 10.547295932233489 8.964603967527186 10.628077175769905 8.716276441100424 10.805000000000001 8.544 L 13.045000000000002 6.361000000000001 L 9.949000000000002 5.9110000000000005 C 9.705036726656246 5.875345831114556 9.49417995042043 5.722063422858023 9.385000000000002 5.501 L 8 2.694 Z" stroke-linecap="round" />
</g>
</g>
</g>
<g transform="matrix(NaN NaN NaN NaN 0 0)"  >
<g style=""   >
</g>
</g>
</svg>